<mxfile host="Electron" modified="2024-09-01T12:03:59.894Z" agent="Mozilla/5.0 (Windows NT 10.0; Win64; x64) AppleWebKit/537.36 (KHTML, like Gecko) draw.io/22.1.16 Chrome/120.0.6099.109 Electron/28.1.0 Safari/537.36" etag="ggD893z90v_Ej7rHGrWE" version="22.1.16" type="device">
  <diagram name="Page-1" id="2PKicJBSv8k6ppReB1Bp">
    <mxGraphModel dx="1195" dy="797" grid="1" gridSize="10" guides="1" tooltips="1" connect="1" arrows="1" fold="1" page="1" pageScale="1" pageWidth="800" pageHeight="420" math="0" shadow="0">
      <root>
        <mxCell id="0" />
        <mxCell id="1" parent="0" />
        <mxCell id="dt20e5ARtso_zs6LGvwi-5" style="edgeStyle=orthogonalEdgeStyle;rounded=0;orthogonalLoop=1;jettySize=auto;html=1;" edge="1" parent="1" source="dt20e5ARtso_zs6LGvwi-1" target="dt20e5ARtso_zs6LGvwi-3">
          <mxGeometry relative="1" as="geometry" />
        </mxCell>
        <mxCell id="dt20e5ARtso_zs6LGvwi-1" value="" style="points=[[0.145,0.145,0],[0.5,0,0],[0.855,0.145,0],[1,0.5,0],[0.855,0.855,0],[0.5,1,0],[0.145,0.855,0],[0,0.5,0]];shape=mxgraph.bpmn.event;html=1;verticalLabelPosition=bottom;labelBackgroundColor=#ffffff;verticalAlign=top;align=center;perimeter=ellipsePerimeter;outlineConnect=0;aspect=fixed;outline=standard;symbol=general;" vertex="1" parent="1">
          <mxGeometry x="250" y="10" width="30" height="30" as="geometry" />
        </mxCell>
        <mxCell id="dt20e5ARtso_zs6LGvwi-6" style="edgeStyle=orthogonalEdgeStyle;rounded=0;orthogonalLoop=1;jettySize=auto;html=1;exitX=0.5;exitY=1;exitDx=0;exitDy=0;" edge="1" parent="1" source="dt20e5ARtso_zs6LGvwi-3" target="dt20e5ARtso_zs6LGvwi-4">
          <mxGeometry relative="1" as="geometry" />
        </mxCell>
        <mxCell id="dt20e5ARtso_zs6LGvwi-3" value="L&#39;identifiant X est" style="rounded=1;whiteSpace=wrap;html=1;fillColor=#dae8fc;strokeColor=#6c8ebf;" vertex="1" parent="1">
          <mxGeometry x="305" y="60" width="120" height="30" as="geometry" />
        </mxCell>
        <mxCell id="dt20e5ARtso_zs6LGvwi-8" style="edgeStyle=orthogonalEdgeStyle;rounded=0;orthogonalLoop=1;jettySize=auto;html=1;exitX=0;exitY=0.5;exitDx=0;exitDy=0;exitPerimeter=0;entryX=0.5;entryY=0;entryDx=0;entryDy=0;" edge="1" parent="1" source="dt20e5ARtso_zs6LGvwi-4" target="dt20e5ARtso_zs6LGvwi-7">
          <mxGeometry relative="1" as="geometry" />
        </mxCell>
        <mxCell id="dt20e5ARtso_zs6LGvwi-9" value="(X)" style="edgeLabel;html=1;align=center;verticalAlign=middle;resizable=0;points=[];" vertex="1" connectable="0" parent="dt20e5ARtso_zs6LGvwi-8">
          <mxGeometry x="-0.2367" relative="1" as="geometry">
            <mxPoint as="offset" />
          </mxGeometry>
        </mxCell>
        <mxCell id="dt20e5ARtso_zs6LGvwi-11" style="edgeStyle=orthogonalEdgeStyle;rounded=0;orthogonalLoop=1;jettySize=auto;html=1;exitX=1;exitY=0.5;exitDx=0;exitDy=0;exitPerimeter=0;entryX=0.5;entryY=0;entryDx=0;entryDy=0;" edge="1" parent="1" source="dt20e5ARtso_zs6LGvwi-4" target="dt20e5ARtso_zs6LGvwi-10">
          <mxGeometry relative="1" as="geometry" />
        </mxCell>
        <mxCell id="dt20e5ARtso_zs6LGvwi-12" value="[x]" style="edgeLabel;html=1;align=center;verticalAlign=middle;resizable=0;points=[];" vertex="1" connectable="0" parent="dt20e5ARtso_zs6LGvwi-11">
          <mxGeometry x="-0.1583" y="-2" relative="1" as="geometry">
            <mxPoint as="offset" />
          </mxGeometry>
        </mxCell>
        <mxCell id="dt20e5ARtso_zs6LGvwi-13" style="edgeStyle=orthogonalEdgeStyle;rounded=0;orthogonalLoop=1;jettySize=auto;html=1;exitX=0.5;exitY=1;exitDx=0;exitDy=0;exitPerimeter=0;" edge="1" parent="1" source="dt20e5ARtso_zs6LGvwi-4" target="dt20e5ARtso_zs6LGvwi-17">
          <mxGeometry relative="1" as="geometry">
            <mxPoint x="364.7931034482758" y="230" as="targetPoint" />
          </mxGeometry>
        </mxCell>
        <mxCell id="dt20e5ARtso_zs6LGvwi-14" value="NUL, )" style="edgeLabel;html=1;align=center;verticalAlign=middle;resizable=0;points=[];" vertex="1" connectable="0" parent="dt20e5ARtso_zs6LGvwi-13">
          <mxGeometry x="-0.2232" y="-1" relative="1" as="geometry">
            <mxPoint as="offset" />
          </mxGeometry>
        </mxCell>
        <mxCell id="dt20e5ARtso_zs6LGvwi-4" value="Ã€ droite" style="points=[[0.25,0.25,0],[0.5,0,0],[0.75,0.25,0],[1,0.5,0],[0.75,0.75,0],[0.5,1,0],[0.25,0.75,0],[0,0.5,0]];shape=mxgraph.bpmn.gateway2;html=1;verticalLabelPosition=middle;labelBackgroundColor=#ffffff;verticalAlign=middle;align=center;perimeter=rhombusPerimeter;outlineConnect=0;outline=none;symbol=none;labelPosition=center;" vertex="1" parent="1">
          <mxGeometry x="330" y="120" width="70" height="50" as="geometry" />
        </mxCell>
        <mxCell id="dt20e5ARtso_zs6LGvwi-7" value="une fonction prenant les arguments X et retournant un" style="rounded=1;whiteSpace=wrap;html=1;fillColor=#dae8fc;strokeColor=#6c8ebf;" vertex="1" parent="1">
          <mxGeometry x="210" y="170" width="120" height="50" as="geometry" />
        </mxCell>
        <mxCell id="dt20e5ARtso_zs6LGvwi-10" value="un tableau de X" style="rounded=1;whiteSpace=wrap;html=1;fillColor=#dae8fc;strokeColor=#6c8ebf;" vertex="1" parent="1">
          <mxGeometry x="400" y="180" width="120" height="30" as="geometry" />
        </mxCell>
        <mxCell id="dt20e5ARtso_zs6LGvwi-15" style="edgeStyle=orthogonalEdgeStyle;rounded=0;orthogonalLoop=1;jettySize=auto;html=1;exitX=1;exitY=0.5;exitDx=0;exitDy=0;entryX=0.5;entryY=0;entryDx=0;entryDy=0;entryPerimeter=0;" edge="1" parent="1" source="dt20e5ARtso_zs6LGvwi-10" target="dt20e5ARtso_zs6LGvwi-4">
          <mxGeometry relative="1" as="geometry" />
        </mxCell>
        <mxCell id="dt20e5ARtso_zs6LGvwi-16" style="edgeStyle=orthogonalEdgeStyle;rounded=0;orthogonalLoop=1;jettySize=auto;html=1;exitX=0;exitY=0.5;exitDx=0;exitDy=0;entryX=0.5;entryY=0;entryDx=0;entryDy=0;entryPerimeter=0;" edge="1" parent="1" source="dt20e5ARtso_zs6LGvwi-7" target="dt20e5ARtso_zs6LGvwi-4">
          <mxGeometry relative="1" as="geometry" />
        </mxCell>
        <mxCell id="dt20e5ARtso_zs6LGvwi-20" style="edgeStyle=orthogonalEdgeStyle;rounded=0;orthogonalLoop=1;jettySize=auto;html=1;exitX=0;exitY=0.5;exitDx=0;exitDy=0;exitPerimeter=0;entryX=0.5;entryY=0;entryDx=0;entryDy=0;" edge="1" parent="1" source="dt20e5ARtso_zs6LGvwi-17" target="dt20e5ARtso_zs6LGvwi-19">
          <mxGeometry relative="1" as="geometry" />
        </mxCell>
        <mxCell id="dt20e5ARtso_zs6LGvwi-21" value="type" style="edgeLabel;html=1;align=center;verticalAlign=middle;resizable=0;points=[];" vertex="1" connectable="0" parent="dt20e5ARtso_zs6LGvwi-20">
          <mxGeometry x="-0.0657" y="-1" relative="1" as="geometry">
            <mxPoint x="-18" y="36" as="offset" />
          </mxGeometry>
        </mxCell>
        <mxCell id="dt20e5ARtso_zs6LGvwi-23" style="edgeStyle=orthogonalEdgeStyle;rounded=0;orthogonalLoop=1;jettySize=auto;html=1;exitX=0.5;exitY=1;exitDx=0;exitDy=0;exitPerimeter=0;entryX=0.5;entryY=0;entryDx=0;entryDy=0;" edge="1" parent="1" source="dt20e5ARtso_zs6LGvwi-17" target="dt20e5ARtso_zs6LGvwi-22">
          <mxGeometry relative="1" as="geometry" />
        </mxCell>
        <mxCell id="dt20e5ARtso_zs6LGvwi-24" value="[...]" style="edgeLabel;html=1;align=center;verticalAlign=middle;resizable=0;points=[];" vertex="1" connectable="0" parent="dt20e5ARtso_zs6LGvwi-23">
          <mxGeometry x="-0.1738" y="2" relative="1" as="geometry">
            <mxPoint as="offset" />
          </mxGeometry>
        </mxCell>
        <mxCell id="dt20e5ARtso_zs6LGvwi-26" style="edgeStyle=orthogonalEdgeStyle;rounded=0;orthogonalLoop=1;jettySize=auto;html=1;exitX=1;exitY=0.5;exitDx=0;exitDy=0;exitPerimeter=0;entryX=0.5;entryY=0;entryDx=0;entryDy=0;" edge="1" parent="1" source="dt20e5ARtso_zs6LGvwi-17" target="dt20e5ARtso_zs6LGvwi-25">
          <mxGeometry relative="1" as="geometry" />
        </mxCell>
        <mxCell id="dt20e5ARtso_zs6LGvwi-27" value="*" style="edgeLabel;html=1;align=center;verticalAlign=middle;resizable=0;points=[];" vertex="1" connectable="0" parent="dt20e5ARtso_zs6LGvwi-26">
          <mxGeometry x="-0.4249" relative="1" as="geometry">
            <mxPoint x="100" y="35" as="offset" />
          </mxGeometry>
        </mxCell>
        <mxCell id="dt20e5ARtso_zs6LGvwi-30" style="edgeStyle=orthogonalEdgeStyle;rounded=0;orthogonalLoop=1;jettySize=auto;html=1;exitX=0.5;exitY=1;exitDx=0;exitDy=0;exitPerimeter=0;entryX=0.5;entryY=0;entryDx=0;entryDy=0;" edge="1" parent="1" source="dt20e5ARtso_zs6LGvwi-17" target="dt20e5ARtso_zs6LGvwi-29">
          <mxGeometry relative="1" as="geometry" />
        </mxCell>
        <mxCell id="dt20e5ARtso_zs6LGvwi-31" value="(...)" style="edgeLabel;html=1;align=center;verticalAlign=middle;resizable=0;points=[];" vertex="1" connectable="0" parent="dt20e5ARtso_zs6LGvwi-30">
          <mxGeometry x="0.0192" y="1" relative="1" as="geometry">
            <mxPoint as="offset" />
          </mxGeometry>
        </mxCell>
        <mxCell id="dt20e5ARtso_zs6LGvwi-32" style="edgeStyle=orthogonalEdgeStyle;rounded=0;orthogonalLoop=1;jettySize=auto;html=1;exitX=0.5;exitY=1;exitDx=0;exitDy=0;exitPerimeter=0;entryX=0.5;entryY=0;entryDx=0;entryDy=0;entryPerimeter=0;" edge="1" parent="1" source="dt20e5ARtso_zs6LGvwi-17" target="dt20e5ARtso_zs6LGvwi-4">
          <mxGeometry relative="1" as="geometry">
            <mxPoint x="364.7931034482758" y="399.9999999999998" as="targetPoint" />
            <Array as="points">
              <mxPoint x="365" y="320" />
              <mxPoint x="380" y="320" />
              <mxPoint x="380" y="400" />
              <mxPoint x="700" y="400" />
              <mxPoint x="700" y="100" />
              <mxPoint x="365" y="100" />
            </Array>
          </mxGeometry>
        </mxCell>
        <mxCell id="dt20e5ARtso_zs6LGvwi-33" value="(" style="edgeLabel;html=1;align=center;verticalAlign=middle;resizable=0;points=[];" vertex="1" connectable="0" parent="dt20e5ARtso_zs6LGvwi-32">
          <mxGeometry x="0.2802" relative="1" as="geometry">
            <mxPoint x="-320" y="203" as="offset" />
          </mxGeometry>
        </mxCell>
        <mxCell id="dt20e5ARtso_zs6LGvwi-17" value="Ã€ gauche" style="points=[[0.25,0.25,0],[0.5,0,0],[0.75,0.25,0],[1,0.5,0],[0.75,0.75,0],[0.5,1,0],[0.25,0.75,0],[0,0.5,0]];shape=mxgraph.bpmn.gateway2;html=1;verticalLabelPosition=middle;labelBackgroundColor=#ffffff;verticalAlign=middle;align=center;perimeter=rhombusPerimeter;outlineConnect=0;outline=none;symbol=none;labelPosition=center;" vertex="1" parent="1">
          <mxGeometry x="330" y="250" width="70" height="50" as="geometry" />
        </mxCell>
        <mxCell id="dt20e5ARtso_zs6LGvwi-19" value="nom du type" style="rounded=1;whiteSpace=wrap;html=1;fillColor=#dae8fc;strokeColor=#6c8ebf;" vertex="1" parent="1">
          <mxGeometry x="70" y="340" width="120" height="30" as="geometry" />
        </mxCell>
        <mxCell id="dt20e5ARtso_zs6LGvwi-22" value="un tableu de X" style="rounded=1;whiteSpace=wrap;html=1;fillColor=#dae8fc;strokeColor=#6c8ebf;" vertex="1" parent="1">
          <mxGeometry x="210" y="340" width="120" height="30" as="geometry" />
        </mxCell>
        <mxCell id="dt20e5ARtso_zs6LGvwi-25" value="pointeur sur" style="rounded=1;whiteSpace=wrap;html=1;fillColor=#dae8fc;strokeColor=#6c8ebf;" vertex="1" parent="1">
          <mxGeometry x="540" y="340" width="120" height="30" as="geometry" />
        </mxCell>
        <mxCell id="dt20e5ARtso_zs6LGvwi-28" value="Chercher l&#39;identifiant" style="rounded=1;whiteSpace=wrap;html=1;" vertex="1" parent="1">
          <mxGeometry x="305" y="10" width="120" height="30" as="geometry" />
        </mxCell>
        <mxCell id="dt20e5ARtso_zs6LGvwi-29" value="fonction retournant" style="rounded=1;whiteSpace=wrap;html=1;fillColor=#dae8fc;strokeColor=#6c8ebf;" vertex="1" parent="1">
          <mxGeometry x="400" y="340" width="120" height="30" as="geometry" />
        </mxCell>
        <mxCell id="dt20e5ARtso_zs6LGvwi-34" style="edgeStyle=orthogonalEdgeStyle;rounded=0;orthogonalLoop=1;jettySize=auto;html=1;exitX=0.5;exitY=1;exitDx=0;exitDy=0;entryX=0.5;entryY=0;entryDx=0;entryDy=0;entryPerimeter=0;" edge="1" parent="1" source="dt20e5ARtso_zs6LGvwi-25" target="dt20e5ARtso_zs6LGvwi-17">
          <mxGeometry relative="1" as="geometry">
            <Array as="points">
              <mxPoint x="600" y="390" />
              <mxPoint x="680" y="390" />
              <mxPoint x="680" y="230" />
              <mxPoint x="365" y="230" />
            </Array>
          </mxGeometry>
        </mxCell>
        <mxCell id="dt20e5ARtso_zs6LGvwi-35" style="edgeStyle=orthogonalEdgeStyle;rounded=0;orthogonalLoop=1;jettySize=auto;html=1;exitX=0.5;exitY=1;exitDx=0;exitDy=0;entryX=0.5;entryY=0;entryDx=0;entryDy=0;entryPerimeter=0;" edge="1" parent="1" source="dt20e5ARtso_zs6LGvwi-29" target="dt20e5ARtso_zs6LGvwi-17">
          <mxGeometry relative="1" as="geometry">
            <Array as="points">
              <mxPoint x="460" y="390" />
              <mxPoint x="680" y="390" />
              <mxPoint x="680" y="230" />
              <mxPoint x="365" y="230" />
            </Array>
          </mxGeometry>
        </mxCell>
        <mxCell id="dt20e5ARtso_zs6LGvwi-36" style="edgeStyle=orthogonalEdgeStyle;rounded=0;orthogonalLoop=1;jettySize=auto;html=1;exitX=0.5;exitY=1;exitDx=0;exitDy=0;entryX=0.5;entryY=0;entryDx=0;entryDy=0;entryPerimeter=0;" edge="1" parent="1" source="dt20e5ARtso_zs6LGvwi-22" target="dt20e5ARtso_zs6LGvwi-17">
          <mxGeometry relative="1" as="geometry">
            <Array as="points">
              <mxPoint x="270" y="390" />
              <mxPoint x="50" y="390" />
              <mxPoint x="50" y="230" />
              <mxPoint x="365" y="230" />
            </Array>
          </mxGeometry>
        </mxCell>
        <mxCell id="dt20e5ARtso_zs6LGvwi-37" style="edgeStyle=orthogonalEdgeStyle;rounded=0;orthogonalLoop=1;jettySize=auto;html=1;exitX=0.5;exitY=1;exitDx=0;exitDy=0;entryX=0.5;entryY=0;entryDx=0;entryDy=0;entryPerimeter=0;" edge="1" parent="1" source="dt20e5ARtso_zs6LGvwi-19" target="dt20e5ARtso_zs6LGvwi-17">
          <mxGeometry relative="1" as="geometry">
            <Array as="points">
              <mxPoint x="130" y="390" />
              <mxPoint x="50" y="390" />
              <mxPoint x="50" y="230" />
              <mxPoint x="365" y="230" />
            </Array>
          </mxGeometry>
        </mxCell>
        <mxCell id="dt20e5ARtso_zs6LGvwi-38" value="" style="points=[[0.145,0.145,0],[0.5,0,0],[0.855,0.145,0],[1,0.5,0],[0.855,0.855,0],[0.5,1,0],[0.145,0.855,0],[0,0.5,0]];shape=mxgraph.bpmn.event;html=1;verticalLabelPosition=bottom;labelBackgroundColor=#ffffff;verticalAlign=top;align=center;perimeter=ellipsePerimeter;outlineConnect=0;aspect=fixed;outline=throwing;symbol=general;" vertex="1" parent="1">
          <mxGeometry x="340" y="380" width="30" height="30" as="geometry" />
        </mxCell>
        <mxCell id="dt20e5ARtso_zs6LGvwi-39" style="edgeStyle=orthogonalEdgeStyle;rounded=0;orthogonalLoop=1;jettySize=auto;html=1;exitX=0.5;exitY=1;exitDx=0;exitDy=0;exitPerimeter=0;entryX=0.5;entryY=0;entryDx=0;entryDy=0;entryPerimeter=0;" edge="1" parent="1" source="dt20e5ARtso_zs6LGvwi-17" target="dt20e5ARtso_zs6LGvwi-38">
          <mxGeometry relative="1" as="geometry">
            <Array as="points">
              <mxPoint x="365" y="320" />
              <mxPoint x="355" y="320" />
            </Array>
          </mxGeometry>
        </mxCell>
        <mxCell id="dt20e5ARtso_zs6LGvwi-40" value="NUL" style="edgeLabel;html=1;align=center;verticalAlign=middle;resizable=0;points=[];" vertex="1" connectable="0" parent="dt20e5ARtso_zs6LGvwi-39">
          <mxGeometry x="0.4329" y="1" relative="1" as="geometry">
            <mxPoint as="offset" />
          </mxGeometry>
        </mxCell>
      </root>
    </mxGraphModel>
  </diagram>
</mxfile>
